<svg id="Layer_1" data-name="Layer 1" xmlns="http://www.w3.org/2000/svg" viewBox="0 0 64 64"><defs><style>.cls-1{fill:#c1da9b;}.cls-2{fill:#76cbea;}.cls-3{fill:#fdd870;}.cls-4{fill:#1e1814;}</style></defs><path class="cls-1" d="M48.35,50H32a2,2,0,0,1-2-2,2,2,0,0,1,2-2h1a2,2,0,0,0,2-2,2,2,0,0,0-2-2H27a2,2,0,0,1-2-2,2,2,0,0,1,2-2h5a2,2,0,0,0,2-2,2,2,0,0,0-2-2H23a2,2,0,0,1-2-2,2,2,0,0,1,2-2H41.07a12,12,0,0,0,7.35,19.88l-.06.11Z"/><path class="cls-1" d="M34,58v3A25,25,0,0,1,4.55,48H24a2,2,0,0,1,2,2,2,2,0,0,1-2,2H20a2,2,0,0,0-2,2,2,2,0,0,0,2,2H32A2,2,0,0,1,34,58Z"/><path class="cls-1" d="M20.41,38.59A2,2,0,0,1,21,40a2,2,0,0,1-2,2H2.5A25.1,25.1,0,0,1,3,30H15a2,2,0,0,1,2,2,2,2,0,0,1-2,2H10a2,2,0,0,0-2,2,2,2,0,0,0,2,2h9A2,2,0,0,1,20.41,38.59Z"/><path class="cls-2" d="M34.75,22.19a12,12,0,0,0,7.06,7.06,8.85,8.85,0,0,0-.74.76H23a2,2,0,0,0-2,2,2,2,0,0,0,2,2h9a2,2,0,0,1,2,2,2,2,0,0,1-2,2H27a2,2,0,0,0-2,2,2,2,0,0,0,2,2h6a2,2,0,0,1,2,2,2,2,0,0,1-2,2H32a2,2,0,0,0-2,2,2,2,0,0,0,2,2H48.35A25.06,25.06,0,0,1,34,61V58a2,2,0,0,0-2-2H20a2,2,0,0,1-2-2,2,2,0,0,1,2-2h4a2,2,0,0,0,2-2,2,2,0,0,0-2-2H4.55a24.58,24.58,0,0,1-2-6H19a2,2,0,0,0,2-2,2,2,0,0,0-2-2H10a2,2,0,0,1-2-2,2,2,0,0,1,2-2h5a2,2,0,0,0,2-2,2,2,0,0,0-2-2H3A25.06,25.06,0,0,1,14.11,15.58a12,12,0,0,0,20.64,6.61Z"/><path class="cls-3" d="M14,14A12,12,0,0,1,37.23,9.8,12,12,0,0,0,34,18a11.84,11.84,0,0,0,.75,4.19,12,12,0,0,1-20.64-6.61A10.31,10.31,0,0,1,14,14Z"/><path class="cls-3" d="M48.42,49.89A12,12,0,0,1,41.07,30a8.85,8.85,0,0,1,.74-.76A12.15,12.15,0,0,0,46,30a12,12,0,0,0,8.2-3.23A12,12,0,0,1,50,50,10.31,10.31,0,0,1,48.42,49.89Z"/><path class="cls-3" d="M41.81,29.25a12,12,0,0,1-7.06-7.06A11.84,11.84,0,0,1,34,18,12,12,0,1,1,46,30,12.15,12.15,0,0,1,41.81,29.25Z"/><path class="cls-4" d="M55.88,26.43A13,13,0,0,0,37.57,8.12,13,13,0,0,0,13,14c0,.36,0,.72.05,1.07A26,26,0,0,0,27,63,25.82,25.82,0,0,0,48.93,51c.35,0,.71,0,1.07,0a13,13,0,0,0,5.88-24.57ZM46,7A11,11,0,1,1,35,18,11,11,0,0,1,46,7ZM33,41H27a1,1,0,0,1,0-2h5a3,3,0,0,0,0-6H23a1,1,0,0,1,0-2H39.07A12.81,12.81,0,0,0,37,38a13,13,0,0,0,6.1,11H32a1,1,0,0,1,0-2h1a3,3,0,0,0,0-6ZM26,3A11,11,0,0,1,36.07,9.63,13,13,0,0,0,33.6,21.91,10.85,10.85,0,0,1,26,25,11,11,0,0,1,26,3ZM3.75,31H15a1,1,0,0,1,0,2H10a3,3,0,0,0,0,6h9a1,1,0,0,1,0,2H3.34A24,24,0,0,1,3,37,24.35,24.35,0,0,1,3.75,31ZM6.23,49H24a1,1,0,0,1,0,2H20a3,3,0,0,0,0,6H32a1,1,0,0,1,1,1v2.25A24.35,24.35,0,0,1,27,61,24,24,0,0,1,6.23,49ZM35,59.64V58a3,3,0,0,0-3-3H20a1,1,0,0,1,0-2h4a3,3,0,0,0,0-6H5.19a23.76,23.76,0,0,1-1.43-4H19a3,3,0,0,0,0-6H10a1,1,0,0,1,0-2h5a3,3,0,0,0,0-6H4.36a23.76,23.76,0,0,1,9.06-11.78A13,13,0,0,0,26,27a12.8,12.8,0,0,0,8.42-3.12A13.11,13.11,0,0,0,39.1,29H23a3,3,0,0,0,0,6h9a1,1,0,0,1,0,2H27a3,3,0,0,0,0,6h6a1,1,0,0,1,0,2H32a3,3,0,0,0,0,6H46.48A23.74,23.74,0,0,1,35,59.64ZM50,49A11,11,0,0,1,39,38a10.85,10.85,0,0,1,3.09-7.6,13,13,0,0,0,12.28-2.47A11,11,0,0,1,50,49Z"/><path class="cls-4" d="M46,23a2,2,0,0,1-2-2H42a4,4,0,0,0,3,3.86V27h2V25h3V21a4,4,0,0,0-4-4,2,2,0,0,1-2-2V13h2a2,2,0,0,1,2,2h2a4,4,0,0,0-3-3.86V9H45v2H42v4a4,4,0,0,0,4,4,2,2,0,0,1,2,2v2Z"/><rect class="cls-4" x="51" y="17" width="2" height="2"/><rect class="cls-4" x="39" y="17" width="2" height="2"/><path class="cls-4" d="M21,18a5,5,0,0,0,10,0H29a3,3,0,0,1-6,0V17h4V15H23V13h4V11H23V10a3,3,0,0,1,6,0h2a5,5,0,0,0-10,0v1H17v2h4v2H17v2h4Z"/><polygon class="cls-4" points="55.77 32.64 54.23 31.36 50 36.44 45.77 31.36 44.23 32.64 49 38.36 49 39 45 39 45 41 49 41 49 43 45 43 45 45 49 45 49 47 51 47 51 45 55 45 55 43 51 43 51 41 55 41 55 39 51 39 51 38.36 55.77 32.64"/></svg>